<svg width="21" height="21" viewBox="0 0 21 21" fill="none" xmlns="http://www.w3.org/2000/svg">
  <g clip-path="url(#clip0_20_120)">
    <path d="M10.9174 0.052063C5.39449 0.052063 0.917358 4.5292 0.917358 10.0521C0.917358 15.5749 5.39449 20.0521 10.9174 20.0521C16.4402 20.0521 20.9174 15.5749 20.9174 10.0521C20.9174 4.5292 16.4402 0.052063 10.9174 0.052063ZM7.17045 16.8226H4.3592V7.77748H7.17045V16.8226ZM5.76544 6.54107C4.86437 6.54107 4.13495 5.81063 4.13495 4.91078C4.13516 4.01176 4.86437 3.28132 5.76544 3.28132C6.66406 3.28132 7.39449 4.01176 7.39449 4.91078C7.39449 5.81084 6.66385 6.54107 5.76544 6.54107ZM17.6996 16.8226H14.8906V12.4238C14.8906 11.3748 14.8711 10.0257 13.4293 10.0257C11.9672 10.0257 11.7423 11.1682 11.7423 12.3479V16.8224H8.93352V7.77748H11.6298V9.0135H11.6676C12.0431 8.30229 12.9597 7.55263 14.3275 7.55263C17.1741 7.55263 17.6996 9.42598 17.6996 11.8614V16.8226Z" fill="white" />
  </g>
  <defs>
    <clipPath id="clip0_20_120">
      <rect width="20" height="20" fill="white" transform="translate(0.917358 0.052063)" />
    </clipPath>
  </defs>
</svg>
